<svg xmlns="http://www.w3.org/2000/svg" style="max-width:1050px;font:400 16px -apple-system,BlinkMacSystemFont,&quot;Segoe UI&quot;,Roboto,Oxygen,Ubuntu,Cantarell,&quot;Fira Sans&quot;,&quot;Droid Sans&quot;,&quot;Helvetica Neue&quot;,sans-serif" viewBox="-50 -10 1050 476" color="#fff"><style/><path id="actor0" class="actor-line" stroke-width=".5" stroke="#999" d="M75 5v460"/><rect fill="#eaeaea" stroke="#666" width="150" height="65" rx="3" ry="3" class="actor"/><text x="75" y="32.5" dominant-baseline="central" alignment-baseline="central" class="actor" text-anchor="middle"><tspan x="75" dy="0">Interface</tspan></text><path id="actor1" class="actor-line" stroke-width=".5" stroke="#999" d="M275 5v460"/><rect x="200" fill="#eaeaea" stroke="#666" width="150" height="65" rx="3" ry="3" class="actor"/><text x="275" y="32.5" dominant-baseline="central" alignment-baseline="central" class="actor" text-anchor="middle"><tspan x="275" dy="0">Greenlight</tspan></text><path id="actor2" class="actor-line" stroke-width=".5" stroke="#999" d="M475 5v460"/><rect x="400" fill="#eaeaea" stroke="#666" width="150" height="65" rx="3" ry="3" class="actor"/><text x="475" y="32.5" dominant-baseline="central" alignment-baseline="central" class="actor" text-anchor="middle"><tspan x="475" dy="0">Your Project</tspan></text><path id="actor3" class="actor-line" stroke-width=".5" stroke="#999" d="M675 5v460"/><rect x="600" fill="#eaeaea" stroke="#666" width="150" height="65" rx="3" ry="3" class="actor"/><text x="675" y="32.5" dominant-baseline="central" alignment-baseline="central" class="actor" text-anchor="middle"><tspan x="675" dy="0">Plugin</tspan></text><path id="actor4" class="actor-line" stroke-width=".5" stroke="#999" d="M875 5v460"/><rect x="800" fill="#eaeaea" stroke="#666" width="150" height="65" rx="3" ry="3" class="actor"/><text x="875" y="32.5" dominant-baseline="central" alignment-baseline="central" class="actor" text-anchor="middle"><tspan x="875" dy="0">Docker</tspan></text><defs><marker id="arrowhead" refX="5" refY="2" markerWidth="6" markerHeight="4" orient="auto" fill="#333"><path d="M0 0v4l6-2z"/></marker></defs><defs><marker id="crosshead" markerWidth="15" markerHeight="8" orient="auto" refX="16" refY="4"><path stroke="#000" d="M9 2v4l7-2z" stroke-dasharray="0,0"/><path fill="none" stroke="#000" d="M0 1l6 6m0-6L0 7" stroke-dasharray="0,0"/></marker></defs><text x="175" y="93" class="messageText" text-anchor="middle">trigger</text><path class="messageLine0" stroke-width="2" stroke="#000" marker-end="url(#arrowhead)" fill="none" d="M75 100h200"/><text x="375" y="128" class="messageText" text-anchor="middle">read config</text><path class="messageLine0" stroke-width="2" stroke="#000" marker-end="url(#arrowhead)" fill="none" d="M275 135h200"/><text x="575" y="163" class="messageText" text-anchor="middle">pull plugin image</text><path class="messageLine0" stroke-width="2" stroke="#000" marker-end="url(#arrowhead)" fill="none" d="M275 170h600"/><text x="775" y="198" class="messageText" text-anchor="middle">create container</text><path class="messageLine1" stroke-width="2" stroke="#000" marker-end="url(#arrowhead)" stroke-dasharray="3,3" fill="none" d="M875 205H675"/><text x="475" y="233" class="messageText" text-anchor="middle">execute plugin</text><path class="messageLine0" stroke-width="2" stroke="#000" marker-end="url(#arrowhead)" fill="none" d="M275 240h400"/><text x="675" y="268" class="messageText" text-anchor="middle">mount as volume</text><path class="messageLine1" stroke-width="2" stroke="#000" marker-end="url(#arrowhead)" stroke-dasharray="3,3" fill="none" d="M475 275h400"/><text x="775" y="303" class="messageText" text-anchor="middle">run container</text><path class="messageLine0" stroke-width="2" stroke="#000" marker-end="url(#arrowhead)" fill="none" d="M675 310h200"/><text x="475" y="338" class="messageText" text-anchor="middle">stream results</text><path class="messageLine1" stroke-width="2" stroke="#000" marker-end="url(#arrowhead)" stroke-dasharray="3,3" fill="none" d="M675 345H275"/><text x="175" y="373" class="messageText" text-anchor="middle">generate report</text><path class="messageLine1" stroke-width="2" stroke="#000" marker-end="url(#arrowhead)" stroke-dasharray="3,3" fill="none" d="M275 380H75"/><rect y="400" fill="#eaeaea" stroke="#666" width="150" height="65" rx="3" ry="3" class="actor"/><text x="75" y="432.5" dominant-baseline="central" alignment-baseline="central" class="actor" text-anchor="middle"><tspan x="75" dy="0">Interface</tspan></text><rect x="200" y="400" fill="#eaeaea" stroke="#666" width="150" height="65" rx="3" ry="3" class="actor"/><text x="275" y="432.5" dominant-baseline="central" alignment-baseline="central" class="actor" text-anchor="middle"><tspan x="275" dy="0">Greenlight</tspan></text><rect x="400" y="400" fill="#eaeaea" stroke="#666" width="150" height="65" rx="3" ry="3" class="actor"/><text x="475" y="432.5" dominant-baseline="central" alignment-baseline="central" class="actor" text-anchor="middle"><tspan x="475" dy="0">Your Project</tspan></text><rect x="600" y="400" fill="#eaeaea" stroke="#666" width="150" height="65" rx="3" ry="3" class="actor"/><text x="675" y="432.5" dominant-baseline="central" alignment-baseline="central" class="actor" text-anchor="middle"><tspan x="675" dy="0">Plugin</tspan></text><rect x="800" y="400" fill="#eaeaea" stroke="#666" width="150" height="65" rx="3" ry="3" class="actor"/><text x="875" y="432.5" dominant-baseline="central" alignment-baseline="central" class="actor" text-anchor="middle"><tspan x="875" dy="0">Docker</tspan></text></svg>